<svg xmlns="http://www.w3.org/2000/svg" viewBox="0 0 154.1 79.1"><defs><style>.cls-1{fill:#fff;}</style></defs><title>logo-site</title><g id="Layer_2" data-name="Layer 2"><g id="Layer_1-2" data-name="Layer 1"><path class="cls-1" d="M90,16,85.8,9.4,84.2,11v4.7l2,2.3H79.5l1.2-2.7V2.3L78.7,0h6.7L84.2,2.7V8.8l6.3-6.7L89.1,0h5.6L88.1,6.9l7,11.2H89.3Z"/><path class="cls-1" d="M106.7,14.8a5.55,5.55,0,0,1-5.2,3.6c-2.6,0-4.3-1.6-4.3-4.7V7.2l-2-2.3h5.4v8.5c0,1.8.8,2.7,2.3,2.7s2.9-1.3,3.5-3.4v-5L104,4.9h5.9V15.3l2.4,2.8h-5.6Z"/><path class="cls-1" d="M118.6,15.8l2,2.3h-6.7l1.2-2.7V7.6l-2.4-2.8h5.6V8.1a5.9,5.9,0,0,1,5.5-3.7c2.6,0,4.2,1.6,4.2,5.4v5.9l2,2.3h-6.7l1.2-2.7V9.9c0-2.3-.8-3.1-2.4-3.1s-2.9,1.4-3.5,3.5Z"/><path class="cls-1" d="M134.5,17.2l-2.7,1.1V13.5l2.5,1.5a9.6,9.6,0,0,0,4.7,1.7c1.5,0,2.1-.6,2.1-1.5s-.9-1.6-3.7-2.3c-3.8-1-5.7-2.5-5.7-4.8s1.9-3.7,4.6-3.7a8.36,8.36,0,0,1,4.5,1.3l2.4-1.1V9.2l-2.1-1.6a7.94,7.94,0,0,0-4.6-1.7c-1.1,0-1.6.5-1.6,1.3,0,1,.7,1.5,3.3,2.2,4.5,1.1,6.2,2.5,6.2,4.8,0,2.6-2.1,4.1-5.2,4.1A8.85,8.85,0,0,1,134.5,17.2Z"/><path class="cls-1" d="M150.9,18.3c-2.2,0-3.5-1.4-3.5-4.1V6.8h-2.1v-2h2.1L148.5.6h2.4V4.8h2.9v2h-2.9v6.9c0,2,.6,2.9,1.8,2.9a2.08,2.08,0,0,0,1.2-.5l.2.2A3.21,3.21,0,0,1,150.9,18.3Z"/><path class="cls-1" d="M90,46l-4.2-6.6L84.2,41v4.7l2,2.3H79.5l1.2-2.7v-13l-2-2.3h6.7l-1.2,2.7v6.1L90.6,32l-1.4-2.1h5.6l-6.6,6.9,7,11.2H89.4Z"/><path class="cls-1" d="M96.5,48.1l1.2-2.7V32.1l-2.4-2.8h5.9V45.7l2,2.3H96.5Z"/><path class="cls-1" d="M105.1,48.1l1.2-2.7V37.7l-2.4-2.8h5.9V45.8l2,2.3ZM108,29.2a1.9,1.9,0,1,1-1.9,1.9A2,2,0,0,1,108,29.2Z"/><path class="cls-1" d="M122.5,46.1l-3-3.8-1.2,1.1v2.7l1.7,2h-6.5l1.2-2.7V32.1l-2.4-2.8h5.9V41.6l5-4.7-1.4-2h5.8L121.9,40l6.4,8.1H122Z"/><path class="cls-1" d="M27,47.8H41.8a.1.1,0,0,0-.1-.1c-1-1.3-2-2.5-3.1-3.8a.35.35,0,0,0-.1-.2V40.5a.91.91,0,0,1,.4-.8l.1-.1c.2-.2.5-.4.7-.6l.1.1c1,1.5,2.1,3.1,3.1,4.6a.14.14,0,0,1,0,.2v.5c0,.5-.1.9-.1,1.4s-.1.9-.1,1.4v.7H57c-3.5-4.9-7-9.8-10.6-14.7l8.3-7.4H42.6a.1.1,0,0,0,.1.1c.8,1.3,1.6,2.5,2.5,3.8.1.1.1.1,0,.2l-.6.6c-1.9,1.9-3.9,3.7-5.8,5.6l-.1.1V25.8h-14c.1.1.1.1.1.2,1.5,1.9,3.1,3.7,4.6,5.6,0,.1.1.1.1.2V42.3c-.6,1.5-1.3,3-1.9,4.4A6,6,0,0,0,27,47.8Zm-25.8.6c.2,0,.3-.1.4-.1l5.1-1.5h.2a14.73,14.73,0,0,0,5.5,1.7,14.92,14.92,0,0,0,2.1.2,19.27,19.27,0,0,0,2.4-.1,21.66,21.66,0,0,0,2.5-.4,10.61,10.61,0,0,0,3.7-1.8,6.26,6.26,0,0,0,2.4-4.8V40a5.68,5.68,0,0,0-.7-2.2,7.56,7.56,0,0,0-2.3-2.4,15.86,15.86,0,0,0-3.7-1.8A51.49,51.49,0,0,0,13.2,32c-.9-.2-1.9-.5-2.8-.8a2.55,2.55,0,0,1-1.2-.8,1.12,1.12,0,0,1,.1-1.6,1.5,1.5,0,0,1,1.1-.4,10.82,10.82,0,0,1,1.8,0,14.19,14.19,0,0,1,2.2.5A21.52,21.52,0,0,1,19,31.1c1.5,1,3,2,4.5,2.9a.1.1,0,0,1,.1.1v-9h-.1c-1.5.6-2.9,1.1-4.4,1.7h-.2l-1.2-.6a16.84,16.84,0,0,0-5.8-1.3,19.72,19.72,0,0,0-4.2.2,17.1,17.1,0,0,0-3,.9,7.2,7.2,0,0,0-2.8,2.4,6.68,6.68,0,0,0-1,3.1A6.23,6.23,0,0,0,1,33.4a6.36,6.36,0,0,0,1.3,2.9,7.55,7.55,0,0,0,2.6,2.1,20.76,20.76,0,0,0,4.9,1.9l3.5.9a11.72,11.72,0,0,1,2.4.9,5.5,5.5,0,0,1,.9.7,1.22,1.22,0,0,1,0,1.6,1.37,1.37,0,0,1-.8.5,6.47,6.47,0,0,1-2.4.1,10.55,10.55,0,0,1-1.9-.5,17.94,17.94,0,0,1-3.9-2c-2-1.3-4-2.7-6-4.1A2.09,2.09,0,0,1,1,38C1.2,41.5,1.2,44.9,1.2,48.4Z"/><path class="cls-1" d="M41.7.1c.3,0,.6.1.9.1a6.72,6.72,0,0,1,4.9,3.4,9.64,9.64,0,0,1,1,3,12.29,12.29,0,0,1,.2,2.7v8.6c0,.1,0,.1.1.2l3.9,4.8.1.1H38c.1-.1.1-.2.2-.4.5-1.1.9-2.1,1.4-3.2V9.5a4.92,4.92,0,0,0-.4-2.1,1.89,1.89,0,0,0-1.4-1.2,1.39,1.39,0,0,0-.9,0,3.5,3.5,0,0,0-2.8,1.9,9.87,9.87,0,0,0-1.2,2.8,1.27,1.27,0,0,0-.1.6v7.4a.37.37,0,0,0,.1.3c1,1.3,2.1,2.6,3.1,3.8v.1H22c0-.1,0-.1.1-.2.5-1.1,1-2.3,1.5-3.4V9.7a4.65,4.65,0,0,0-.3-2,2.56,2.56,0,0,0-1-1.3A1.81,1.81,0,0,0,21,6.2a3,3,0,0,0-1.8.8,7,7,0,0,0-1.3,1.6,20,20,0,0,0-1,2.6V19c0,.1,0,.2.1.2,1,1.3,2.1,2.6,3.1,3.9v.1H5.3c0-.1,0-.1.1-.2.8-1.7,1.5-3.5,2.3-5.2V7c0-.1,0-.2-.1-.2l-3.4-4c-.4-.5-.9-1-1.3-1.6H16.1V6.7h0c0-.1.1-.1.1-.2a10.76,10.76,0,0,1,1.3-2.4A9.18,9.18,0,0,1,22.7.5,5.66,5.66,0,0,1,24.5.2a.37.37,0,0,0,.3-.1h1.1a5.08,5.08,0,0,1,1.7.3,6.38,6.38,0,0,1,3.5,2.3,7.19,7.19,0,0,1,1.3,2.8.31.31,0,0,0,.1.2,2.09,2.09,0,0,1,.4-.6A10.25,10.25,0,0,1,37,1.2,9,9,0,0,1,40.2.3c.2,0,.4-.1.6-.1A2.48,2.48,0,0,1,41.7.1Z"/><path class="cls-1" d="M27,47.8c.2-.4.3-.7.5-1.1.6-1.5,1.3-3,1.9-4.4V31.8c0-.1,0-.2-.1-.2-1.5-1.9-3.1-3.7-4.6-5.6,0-.1-.1-.1-.1-.2h14V36.2l.1-.1c1.9-1.9,3.9-3.7,5.8-5.6l.6-.6c.1-.1.1-.1,0-.2-.8-1.2-1.6-2.5-2.5-3.8a.1.1,0,0,0-.1-.1H54.6l-8.3,7.4c3.5,4.9,7,9.8,10.6,14.7H42.6v-.7c0-.5.1-.9.1-1.4s.1-.9.1-1.4v-.7c-1-1.5-2.1-3.1-3.1-4.6a.1.1,0,0,0-.1-.1c-.2.2-.5.4-.7.6l-.1.1a.81.81,0,0,0-.4.8v3.2c0,.1,0,.2.1.2,1,1.3,2,2.5,3.1,3.8a.1.1,0,0,0,.1.1Z"/><path class="cls-1" d="M1.2,48.4V38.1c.2.1.4.3.6.4,2,1.4,4,2.7,6,4.1a17.94,17.94,0,0,0,3.9,2,13.32,13.32,0,0,0,1.9.5A6.47,6.47,0,0,0,16,45a2.18,2.18,0,0,0,.8-.5,1.53,1.53,0,0,0,0-1.6,2.18,2.18,0,0,0-.9-.7,11.72,11.72,0,0,0-2.4-.9L10,40.4a22.58,22.58,0,0,1-4.9-1.9,8.9,8.9,0,0,1-2.6-2.1,5.92,5.92,0,0,1-1.3-2.9,5.92,5.92,0,0,1-.1-1.9,7.08,7.08,0,0,1,1-3.1,6.56,6.56,0,0,1,2.8-2.4,9.54,9.54,0,0,1,3-.9,14.82,14.82,0,0,1,4.2-.2,16.34,16.34,0,0,1,5.8,1.3l1.2.6h.2c1.5-.6,2.9-1.1,4.4-1.7h.1v9a.1.1,0,0,1-.1-.1c-1.5-1-3-2-4.5-2.9A17.76,17.76,0,0,0,14.6,29a17.42,17.42,0,0,0-2.2-.5,5.44,5.44,0,0,0-1.8,0,1.5,1.5,0,0,0-1.1.4,1.22,1.22,0,0,0-.1,1.6,3.17,3.17,0,0,0,1.2.8,12.9,12.9,0,0,0,2.8.8A35.85,35.85,0,0,1,19,33.7a18.06,18.06,0,0,1,3.7,1.8A6.62,6.62,0,0,1,25,37.9a5.68,5.68,0,0,1,.7,2.2,8.55,8.55,0,0,1,0,1.6,6.6,6.6,0,0,1-2.4,4.8,8.54,8.54,0,0,1-3.7,1.8,10.05,10.05,0,0,1-2.5.4,19.27,19.27,0,0,1-2.4.1,14.92,14.92,0,0,1-2.1-.2,21.87,21.87,0,0,1-5.5-1.7H6.9L1.8,48.4A.63.63,0,0,0,1.2,48.4Z"/><rect class="cls-1" y="75.1" width="119" height="4"/></g></g></svg>