<svg xmlns="http://www.w3.org/2000/svg" viewBox="0 0 154.07 79.12"><defs><style>.cls-1{fill:#fff;}</style></defs><title>logo-site</title><g id="Layer_2" data-name="Layer 2"><g id="Layer_1-2" data-name="Layer 1"><path class="cls-1" d="M90,16,85.75,9.4,84.17,11v4.72l2,2.35H79.47L80.7,15.4V2.32L78.72,0H85.4L84.17,2.7V8.85l6.37-6.77L89.15,0h5.57L88.15,6.87l7,11.25H89.42Z"/><path class="cls-1" d="M106.67,14.82a5.5,5.5,0,0,1-5.22,3.57c-2.62,0-4.32-1.6-4.32-4.75V7.2l-2-2.33h5.42v8.5c0,1.77.8,2.7,2.3,2.7,1.65,0,2.92-1.32,3.47-3.45V7.7L104,4.87h5.87V15.32l2.45,2.8h-5.62Z"/><path class="cls-1" d="M118.62,15.8l2,2.32h-6.72l1.23-2.72V7.65l-2.42-2.77h5.62V8.22a5.91,5.91,0,0,1,5.47-3.72c2.6,0,4.25,1.63,4.25,5.4v5.9l2,2.32h-6.72l1.25-2.72V10c0-2.27-.82-3.15-2.37-3.15s-2.95,1.37-3.52,3.47Z"/><path class="cls-1" d="M134.55,17.22l-2.75,1.15V13.6l2.52,1.55a9.69,9.69,0,0,0,4.72,1.7c1.47,0,2.07-.58,2.07-1.55s-.9-1.6-3.7-2.35c-3.77-1-5.7-2.5-5.7-4.8s1.95-3.72,4.62-3.72a8.44,8.44,0,0,1,4.47,1.27l2.37-1.08v4.6l-2.1-1.58a7.8,7.8,0,0,0-4.65-1.7c-1.12,0-1.65.5-1.65,1.3,0,1,.7,1.55,3.27,2.22,4.55,1.15,6.22,2.5,6.22,4.8,0,2.6-2.07,4.12-5.17,4.12A9,9,0,0,1,134.55,17.22Z"/><path class="cls-1" d="M150.87,18.37c-2.25,0-3.52-1.42-3.52-4.12V6.82H145.2v-2h2.15L148.42.62h2.42V4.87h2.87v2h-2.87v6.95c0,2,.65,2.87,1.77,2.87a1.81,1.81,0,0,0,1.22-.47l.23.25A3.31,3.31,0,0,1,150.87,18.37Z"/><path class="cls-1" d="M90,46,85.75,39.4,84.17,41v4.72l2,2.35H79.47L80.7,45.4V32.32l-2-2.32H85.4l-1.23,2.7v6.15l6.37-6.77L89.15,30h5.57l-6.57,6.87,7,11.25H89.42Z"/><path class="cls-1" d="M96.47,48.12,97.7,45.4V32.15l-2.42-2.77h5.95V45.8l2,2.32Z"/><path class="cls-1" d="M105.1,48.12l1.23-2.72V37.67l-2.45-2.8h5.95v10.9l2,2.35ZM108,29.2a1.94,1.94,0,1,1-1.92,1.95A2,2,0,0,1,108,29.2Z"/><path class="cls-1" d="M122.47,46.1l-3-3.77-1.2,1.08v2.7l1.72,2h-6.47l1.23-2.72V32.15l-2.42-2.77h5.95V41.65l5-4.72-1.4-2h5.82L122,40l6.42,8.1H122Z"/><path class="cls-1" d="M27,47.83H41.84l-.09-.12-3.07-3.82a.4.4,0,0,1-.08-.23c0-1.05,0-2.11,0-3.16A.78.78,0,0,1,39,39.7l.07-.06.7-.61.09.11,3.1,4.59a.3.3,0,0,1,0,.16c0,.16,0,.32,0,.48l-.1,1.36c0,.46-.07.92-.1,1.38,0,.24,0,.47,0,.71H57L46.45,33.13l8.32-7.38H42.65l.08.13,2.45,3.75c.05.08.05.13,0,.19l-.62.6L38.73,36l-.13.11V25.79h-14l.15.19,4.63,5.55a.37.37,0,0,1,.08.22q0,5.17,0,10.34a.57.57,0,0,1,0,.22l-1.93,4.44Zm-25.8.55.45-.13,5.1-1.53a.32.32,0,0,1,.22,0,16.65,16.65,0,0,0,5.45,1.74c.71.1,1.43.16,2.15.21A15.11,15.11,0,0,0,17,48.59a15.4,15.4,0,0,0,2.48-.45,9.49,9.49,0,0,0,3.67-1.81,6.49,6.49,0,0,0,2.4-4.76,10.49,10.49,0,0,0,0-1.58,5.46,5.46,0,0,0-.72-2.24,7.22,7.22,0,0,0-2.33-2.39,16.75,16.75,0,0,0-3.68-1.78A48.78,48.78,0,0,0,13.2,32a17.51,17.51,0,0,1-2.79-.85,3.48,3.48,0,0,1-1.24-.78,1.21,1.21,0,0,1,.08-1.61,2.08,2.08,0,0,1,1.14-.43,7.71,7.71,0,0,1,1.83,0,11.75,11.75,0,0,1,2.21.51A20.85,20.85,0,0,1,19,31.07c1.53,1,3,2,4.55,2.93l.14.08v-9l-.13,0-4.36,1.69a.24.24,0,0,1-.22,0c-.4-.19-.79-.4-1.19-.57A16.78,16.78,0,0,0,11.93,25a18.28,18.28,0,0,0-4.16.21,11.24,11.24,0,0,0-3,.92A6.79,6.79,0,0,0,2,28.51a6.66,6.66,0,0,0-1,3.09,7.1,7.1,0,0,0,.12,1.86A6.13,6.13,0,0,0,2.5,36.33a8.93,8.93,0,0,0,2.63,2.12A21.35,21.35,0,0,0,10,40.34c1.17.32,2.35.59,3.52.91a10.35,10.35,0,0,1,2.4.93,2.73,2.73,0,0,1,.87.72,1.28,1.28,0,0,1,0,1.56A1.64,1.64,0,0,1,16,45a5.36,5.36,0,0,1-2.35.1,9,9,0,0,1-1.91-.5,18.5,18.5,0,0,1-3.93-2c-2-1.35-4-2.73-6-4.09l-.56-.38Z"/><path class="cls-1" d="M41.73.15l.94.14a6.46,6.46,0,0,1,4.86,3.41,9.68,9.68,0,0,1,1,3,15.58,15.58,0,0,1,.21,2.68q0,4.29,0,8.59a.34.34,0,0,0,.07.19l3.86,4.82.1.14H38l.15-.37,1.4-3.2a.54.54,0,0,0,0-.21q0-4.84,0-9.68a5.26,5.26,0,0,0-.38-2.15,2,2,0,0,0-1.36-1.24,2.88,2.88,0,0,0-.92,0,3.72,3.72,0,0,0-2.81,1.87,10,10,0,0,0-1.19,2.79,2.22,2.22,0,0,0-.08.62q0,3.71,0,7.42a.42.42,0,0,0,.1.28L36,23l0,.06h-14l.07-.17,1.47-3.39a.58.58,0,0,0,0-.22q0-4.79,0-9.58a5.46,5.46,0,0,0-.3-2,2.46,2.46,0,0,0-1-1.3A2.2,2.2,0,0,0,21,6.18a3.27,3.27,0,0,0-1.82.75,5.37,5.37,0,0,0-1.28,1.62,11.53,11.53,0,0,0-1,2.56.54.54,0,0,0,0,.14q0,3.84,0,7.67a.38.38,0,0,0,.08.22L20.13,23l0,.07H5.34l.07-.17,2.29-5.23a.57.57,0,0,0,0-.22q0-5.32,0-10.64a.36.36,0,0,0-.08-.22l-3.4-4L2.92,1H16.08V6.49h0l.1-.2a12.83,12.83,0,0,1,1.3-2.16A9.74,9.74,0,0,1,22.68.52,9.34,9.34,0,0,1,24.43.2l.31-.05h1l.1,0a8.69,8.69,0,0,1,1.66.28A6.39,6.39,0,0,1,31,2.76a8.4,8.4,0,0,1,1.35,2.8l.05.16.36-.61A10.37,10.37,0,0,1,36.9,1.17,9.09,9.09,0,0,1,40.1.23l.56-.08Z"/><path class="cls-1" d="M27,47.83l.47-1.08,1.93-4.44a.57.57,0,0,0,0-.22q0-5.17,0-10.34a.37.37,0,0,0-.08-.22L24.74,26l-.15-.19h14V36.15l.13-.11,5.82-5.61.62-.6c.07-.07.07-.11,0-.19l-2.45-3.75-.08-.13H54.77l-8.32,7.38L57,47.82H42.68c0-.24,0-.48,0-.71,0-.46.07-.92.1-1.38l.1-1.36c0-.16,0-.32,0-.48a.3.3,0,0,0,0-.16l-3.1-4.59L39.72,39l-.7.61L39,39.7a.78.78,0,0,0-.36.79c0,1.05,0,2.11,0,3.16a.4.4,0,0,0,.08.23l3.07,3.82.09.12Z"/><path class="cls-1" d="M1.2,48.37V38.07l.56.38c2,1.37,4,2.75,6,4.09a18.5,18.5,0,0,0,3.93,2,9,9,0,0,0,1.91.5A5.36,5.36,0,0,0,16,45a1.64,1.64,0,0,0,.82-.52,1.28,1.28,0,0,0,0-1.56,2.73,2.73,0,0,0-.87-.72,10.35,10.35,0,0,0-2.4-.93c-1.17-.32-2.35-.6-3.52-.91a21.35,21.35,0,0,1-4.88-1.89A8.93,8.93,0,0,1,2.5,36.33a6.13,6.13,0,0,1-1.32-2.87,7.1,7.1,0,0,1-.12-1.86,6.66,6.66,0,0,1,1-3.09,6.79,6.79,0,0,1,2.78-2.4,11.24,11.24,0,0,1,3-.92A18.28,18.28,0,0,1,11.93,25a16.78,16.78,0,0,1,5.85,1.26c.41.17.8.38,1.19.57a.24.24,0,0,0,.22,0l4.36-1.69.13,0v9L23.54,34c-1.52-1-3-2-4.55-2.93a20.85,20.85,0,0,0-4.56-2.2,11.75,11.75,0,0,0-2.21-.51,7.71,7.71,0,0,0-1.83,0,2.08,2.08,0,0,0-1.14.43,1.21,1.21,0,0,0-.08,1.61,3.48,3.48,0,0,0,1.24.78A17.51,17.51,0,0,0,13.2,32a48.78,48.78,0,0,1,5.58,1.56,16.75,16.75,0,0,1,3.68,1.78,7.22,7.22,0,0,1,2.33,2.39A5.46,5.46,0,0,1,25.5,40a10.49,10.49,0,0,1,0,1.58,6.49,6.49,0,0,1-2.4,4.76,9.49,9.49,0,0,1-3.67,1.81,15.4,15.4,0,0,1-2.48.45,15.11,15.11,0,0,1-2.44.09c-.72,0-1.44-.11-2.15-.21A16.65,16.65,0,0,1,7,46.73a.32.32,0,0,0-.22,0l-5.1,1.53Z"/><rect class="cls-1" y="75.12" width="119" height="4"/></g></g></svg>