<?xml version="1.0" encoding="UTF-8"?>
<svg width="25px" height="25px" viewBox="0 0 25 25" version="1.1" xmlns="http://www.w3.org/2000/svg" xmlns:xlink="http://www.w3.org/1999/xlink">
    <!-- Generator: Sketch 44.1 (41455) - http://www.bohemiancoding.com/sketch -->
    <title>Shape</title>
    <desc>Created with Sketch.</desc>
    <defs></defs>
    <g id="Page-1" stroke="none" stroke-width="1" fill="none" fill-rule="evenodd">
        <g id="logo-site" transform="translate(-1.000000, -24.000000)" fill-rule="nonzero" fill="#000000">
            <path d="M1.2,48.4 L1.2,38.1 C1.4,38.2 1.6,38.4 1.8,38.5 C3.8,39.9 5.8,41.2 7.8,42.6 C9.01337113,43.4235593 10.3231434,44.0952374 11.7,44.6 C12.3201615,44.8132112 12.9552218,44.9803323 13.6,45.1 C14.3992288,45.2167666 15.2132552,45.1828489 16,45 C16.2999651,44.893723 16.5730247,44.7230607 16.8,44.5 C17.1010859,44.0091601 17.1010859,43.3908399 16.8,42.9 C16.5674113,42.5909568 16.2567868,42.34936 15.9,42.2 C15.1353101,41.8131579 14.3304982,41.5113534 13.5,41.3 L10,40.4 C8.29827939,39.959552 6.65381039,39.3219007 5.1,38.5 C4.10849713,37.9704674 3.22627819,37.257906 2.5,36.4 C1.81044729,35.5698896 1.36091469,34.5670861 1.2,33.5 C1.06444549,32.8762005 1.03067612,32.2345826 1.1,31.6 C1.1878692,30.5029902 1.53026327,29.4415686 2.1,28.5 C2.78463864,27.4487165 3.75637507,26.6157995 4.9,26.1 C5.84358785,25.6367719 6.85724607,25.3326745 7.9,25.2 C9.28337917,24.9340574 10.6976099,24.8667131 12.1,25 C14.0965525,25.0750932 16.0624043,25.5157151 17.9,26.3 L19.1,26.9 L19.3,26.9 C20.8,26.3 22.2,25.8 23.7,25.2 L23.8,25.2 L23.8,34.2 C23.7447715,34.2 23.7,34.1552285 23.7,34.1 C22.2,33.1 20.7,32.1 19.2,31.2 C17.7804693,30.249223 16.2311719,29.5082547 14.6,29 C13.8782411,28.7859707 13.143367,28.6189539 12.4,28.5 C11.8041628,28.4000466 11.1958372,28.4000466 10.6,28.5 C10.194295,28.4788718 9.79737042,28.623208 9.5,28.9 C9.07176169,29.3335158 9.02907291,30.0165363 9.4,30.5 C9.73321996,30.8553251 10.1438461,31.1290758 10.6,31.3 C11.5001465,31.6714948 12.4394632,31.939871 13.4,32.1 C15.306971,32.4805731 17.1798162,33.0156717 19,33.7 C20.2978782,34.1570869 21.5392661,34.7610053 22.7,35.5 C23.6583127,36.09136 24.449936,36.9174017 25,37.9 C25.3814789,38.5776807 25.619733,39.3264791 25.7,40.1 C25.7500122,40.6321609 25.7500122,41.1678391 25.7,41.7 C25.6159631,43.5677079 24.7437442,45.3121457 23.3,46.5 C22.2318008,47.3925858 20.9616022,48.0105203 19.6,48.3 C18.7868604,48.5381867 17.9468633,48.6725862 17.1,48.7 C16.302858,48.783211 15.5013011,48.8166092 14.7,48.8 C13.996158,48.7829645 13.2944044,48.7161308 12.6,48.6 C10.6997691,48.2781526 8.85041835,47.7065351 7.1,46.9 L6.9,46.9 L1.8,48.4 C1.61284043,48.2986474 1.38715957,48.2986474 1.2,48.4 Z" id="Shape"></path>
        </g>
    </g>
</svg>