<?xml version="1.0" encoding="UTF-8"?>
<svg width="155px" height="80px" viewBox="0 0 155 80" version="1.1" xmlns="http://www.w3.org/2000/svg" xmlns:xlink="http://www.w3.org/1999/xlink">
    <!-- Generator: Sketch 44.1 (41455) - http://www.bohemiancoding.com/sketch -->
    <title>logo-site</title>
    <desc>Created with Sketch.</desc>
    <defs></defs>
    <g id="Page-1" stroke="none" stroke-width="1" fill="none" fill-rule="evenodd">
        <g id="logo-site" fill-rule="nonzero" fill="#000000">
            <polygon id="Shape" points="90 16 85.8 9.4 84.2 11 84.2 15.7 86.2 18 79.5 18 80.7 15.3 80.7 2.3 78.7 0 85.4 0 84.2 2.7 84.2 8.8 90.5 2.1 89.1 0 94.7 0 88.1 6.9 95.1 18.1 89.3 18.1"></polygon>
            <path d="M106.7,14.8 C105.886833,16.9668437 103.814401,18.4016043 101.5,18.4 C98.9,18.4 97.2,16.8 97.2,13.7 L97.2,7.2 L95.2,4.9 L100.6,4.9 L100.6,13.4 C100.6,15.2 101.4,16.1 102.9,16.1 C104.4,16.1 105.8,14.8 106.4,12.7 L106.4,7.7 L104,4.9 L109.9,4.9 L109.9,15.3 L112.3,18.1 L106.7,18.1 L106.7,14.8 Z" id="Shape"></path>
            <path d="M118.6,15.8 L120.6,18.1 L113.9,18.1 L115.1,15.4 L115.1,7.6 L112.7,4.8 L118.3,4.8 L118.3,8.1 C119.201754,5.85600758 121.381622,4.38955104 123.8,4.4 C126.4,4.4 128,6 128,9.8 L128,15.7 L130,18 L123.3,18 L124.5,15.3 L124.5,9.9 C124.5,7.6 123.7,6.8 122.1,6.8 C120.5,6.8 119.2,8.2 118.6,10.3 L118.6,15.8 Z" id="Shape"></path>
            <path d="M134.5,17.2 L131.8,18.3 L131.8,13.5 L134.3,15 C135.689089,15.9717034 137.310715,16.5582489 139,16.7 C140.5,16.7 141.1,16.1 141.1,15.2 C141.1,14.3 140.2,13.6 137.4,12.9 C133.6,11.9 131.7,10.4 131.7,8.1 C131.7,5.8 133.6,4.4 136.3,4.4 C137.893231,4.39567853 139.454521,4.84671795 140.8,5.7 L143.2,4.6 L143.2,9.2 L141.1,7.6 C139.784463,6.56214095 138.174303,5.96708178 136.5,5.9 C135.4,5.9 134.9,6.4 134.9,7.2 C134.9,8.2 135.6,8.7 138.2,9.4 C142.7,10.5 144.4,11.9 144.4,14.2 C144.4,16.8 142.3,18.3 139.2,18.3 C137.561672,18.3759197 135.934475,17.9950863 134.5,17.2 L134.5,17.2 Z" id="Shape"></path>
            <path d="M150.9,18.3 C148.7,18.3 147.4,16.9 147.4,14.2 L147.4,6.8 L145.3,6.8 L145.3,4.8 L147.4,4.8 L148.5,0.6 L150.9,0.6 L150.9,4.8 L153.8,4.8 L153.8,6.8 L150.9,6.8 L150.9,13.7 C150.9,15.7 151.5,16.6 152.7,16.6 C153.143147,16.5658246 153.563695,16.3905965 153.9,16.1 L154.1,16.3 C153.579173,17.5894488 152.287283,18.3968803 150.9,18.3 Z" id="Shape"></path>
            <polygon id="Shape" points="90 46 85.8 39.4 84.2 41 84.2 45.7 86.2 48 79.5 48 80.7 45.3 80.7 32.3 78.7 30 85.4 30 84.2 32.7 84.2 38.8 90.6 32 89.2 29.9 94.8 29.9 88.2 36.8 95.2 48 89.4 48"></polygon>
            <polygon id="Shape" points="96.5 48.1 97.7 45.4 97.7 32.1 95.3 29.3 101.2 29.3 101.2 45.7 103.2 48 96.5 48"></polygon>
            <path d="M105.1,48.1 L106.3,45.4 L106.3,37.7 L103.9,34.9 L109.8,34.9 L109.8,45.8 L111.8,48.1 L105.1,48.1 Z M108,29.2 C109.049341,29.2 109.9,30.050659 109.9,31.1 C109.9,32.149341 109.049341,33 108,33 C106.950659,33 106.1,32.149341 106.1,31.1 C106.150226,30.0721816 106.972182,29.2502258 108,29.2 Z" id="Shape"></path>
            <polygon id="Shape" points="122.5 46.1 119.5 42.3 118.3 43.4 118.3 46.1 120 48.1 113.5 48.1 114.7 45.4 114.7 32.1 112.3 29.3 118.2 29.3 118.2 41.6 123.2 36.9 121.8 34.9 127.6 34.9 121.9 40 128.3 48.1 122 48.1"></polygon>
            <path d="M27,47.8 L41.8,47.8 C41.8,47.7734784 41.7894643,47.748043 41.7707107,47.7292893 C41.751957,47.7105357 41.7265216,47.7 41.7,47.7 C40.7,46.4 39.7,45.2 38.6,43.9 C38.5894321,43.8241924 38.5543054,43.7539389 38.5,43.7 L38.5,40.5 C38.4840395,40.181686 38.6357725,39.87822 38.9,39.7 L39,39.6 C39.2,39.4 39.5,39.2 39.7,39 L39.8,39.1 C40.8,40.6 41.9,42.2 42.9,43.7 C42.9268754,43.7263325 42.9420204,43.7623744 42.9420204,43.8 C42.9420204,43.8376256 42.9268754,43.8736675 42.9,43.9 L42.9,44.4 C42.9,44.9 42.8,45.3 42.8,45.8 C42.8,46.3 42.7,46.7 42.7,47.2 L42.7,47.9 L57,47.9 C53.5,43 50,38.1 46.4,33.2 L54.7,25.8 L42.6,25.8 C42.6,25.8265216 42.6105357,25.851957 42.6292893,25.8707107 C42.648043,25.8894643 42.6734784,25.9 42.7,25.9 C43.5,27.2 44.3,28.4 45.2,29.7 C45.3,29.8 45.3,29.8 45.2,29.9 L44.6,30.5 C42.7,32.4 40.7,34.2 38.8,36.1 L38.7,36.2 L38.7,25.8 L24.7,25.8 C24.8,25.9 24.8,25.9 24.8,26 C26.3,27.9 27.9,29.7 29.4,31.6 C29.4,31.7 29.5,31.7 29.5,31.8 L29.5,42.3 C28.9,43.8 28.2,45.3 27.6,46.7 C27.3621572,47.0447213 27.1610609,47.4133977 27,47.8 Z M1.2,48.4 C1.4,48.4 1.5,48.3 1.6,48.3 L6.7,46.8 L6.9,46.8 C8.60368055,47.7228871 10.472701,48.3005844 12.4,48.5 C13.0944044,48.6161308 13.796158,48.6829645 14.5,48.7 C15.3013011,48.7166092 16.102858,48.683211 16.9,48.6 C17.7404197,48.5155258 18.5751787,48.3819643 19.4,48.2 C20.7389734,47.8471857 21.9959386,47.2356891 23.1,46.4 C24.5800329,45.2414354 25.4611681,43.4791651 25.5,41.6 L25.5,40 C25.419733,39.2264791 25.1814789,38.4776807 24.8,37.8 C24.2208878,36.8392676 23.4352311,36.0194519 22.5,35.4 C21.350059,34.641883 20.1062612,34.0367922 18.8,33.6 C16.9650155,32.961439 15.0953587,32.4272513 13.2,32 C12.3,31.8 11.3,31.5 10.4,31.2 C9.93135229,31.0543611 9.51468507,30.7765829 9.2,30.4 C8.99759074,30.1761666 8.89407364,29.880123 8.91289813,29.5789311 C8.93172262,29.2777393 9.0712956,28.9968888 9.3,28.8 C9.59737042,28.523208 9.99429496,28.3788718 10.4,28.4 C10.9989586,28.3500058 11.6010414,28.3500058 12.2,28.4 C12.9454414,28.5080129 13.6810993,28.6752079 14.4,28.9 C16.0151012,29.4484435 17.5592713,30.1869596 19,31.1 C20.5,32.1 22,33.1 23.5,34 C23.5265216,34 23.551957,34.0105357 23.5707107,34.0292893 C23.5894643,34.048043 23.6,34.0734784 23.6,34.1 L23.6,25.1 L23.5,25.1 C22,25.7 20.6,26.2 19.1,26.8 L18.9,26.8 L17.7,26.2 C15.8590399,25.4261975 13.8951208,24.9860087 11.9,24.9 C10.4968731,24.8167935 9.08887138,24.8838412 7.7,25.1 C6.6745733,25.3075938 5.67036202,25.6088572 4.7,26 C3.5741406,26.5433556 2.60915344,27.3704875 1.9,28.4 C1.31597679,29.3349881 0.972430379,30.399982 0.9,31.5 C0.835856936,32.1347178 0.869583483,32.7755222 1,33.4 C1.18094113,34.4611023 1.62823889,35.4589204 2.3,36.3 C2.99890432,37.1854424 3.88733606,37.9030219 4.9,38.4 C6.44624912,39.2383531 8.09277273,39.876801 9.8,40.3 L13.3,41.2 C14.1304982,41.4113534 14.9353101,41.7131579 15.7,42.1 C16.0234407,42.3015236 16.325061,42.5361171 16.6,42.8 C16.9985516,43.2588755 16.9985516,43.9411245 16.6,44.4 C16.4009367,44.6561211 16.1174512,44.8332995 15.8,44.9 C15.0132552,45.0828489 14.1992288,45.1167666 13.4,45 C12.7524928,44.8927962 12.1164019,44.7254039 11.5,44.5 C10.1231434,43.9952374 8.81337113,43.3235593 7.6,42.5 C5.6,41.2 3.6,39.8 1.6,38.4 C1.37833497,38.3024372 1.17531372,38.1670897 1,38 C1.2,41.5 1.2,44.9 1.2,48.4 Z" id="Shape"></path>
            <path d="M41.7,0.1 C42,0.1 42.3,0.2 42.6,0.2 C44.6743426,0.506765083 46.4865904,1.76424315 47.5,3.6 C47.9961976,4.53813688 48.3340759,5.55177195 48.5,6.6 C48.6658975,7.48988807 48.732971,8.39538094 48.7,9.3 L48.7,17.9 C48.7,18 48.7,18 48.8,18.1 L52.7,22.9 L52.8,23 L38,23 C38.1,22.9 38.1,22.8 38.2,22.6 C38.7,21.5 39.1,20.5 39.6,19.4 L39.6,9.5 C39.6221924,8.77914357 39.485636,8.06222245 39.2,7.4 C38.9733472,6.78404844 38.4433696,6.3297819 37.8,6.2 C37.5083017,6.1001901 37.1916983,6.1001901 36.9,6.2 C35.7021838,6.31010892 34.6448316,7.02759796 34.1,8.1 C33.5575089,8.96560867 33.1526883,9.91019009 32.9,10.9 C32.8185559,11.0889467 32.7842383,11.2948523 32.8,11.5 L32.8,18.9 C32.7867685,19.0099251 32.8234597,19.1199988 32.9,19.2 C33.9,20.5 35,21.8 36,23 L36,23.1 L22,23.1 C22,23 22,23 22.1,22.9 C22.6,21.8 23.1,20.6 23.6,19.5 L23.6,9.7 C23.6479398,9.01939752 23.5455177,8.33658385 23.3,7.7 C23.1182558,7.16872481 22.7668818,6.71193855 22.3,6.4 C21.9070782,6.17267362 21.4430814,6.10128949 21,6.2 C20.3270607,6.2564746 19.692858,6.53834249 19.2,7 C18.6900758,7.46625072 18.2519927,8.00542992 17.9,8.6 C17.5066421,9.44237108 17.1724985,10.3111445 16.9,11.2 L16.9,19 C16.9,19.1 16.9,19.2 17,19.2 C18,20.5 19.1,21.8 20.1,23.1 L20.1,23.2 L5.3,23.2 C5.3,23.1 5.3,23.1 5.4,23 C6.2,21.3 6.9,19.5 7.7,17.8 L7.7,7 C7.7,6.9 7.7,6.8 7.6,6.8 L4.2,2.8 C3.8,2.3 3.3,1.8 2.9,1.2 L16.1,1.2 L16.1,6.7 L16.1,6.7 C16.1,6.6 16.2,6.6 16.2,6.5 C16.5296978,5.64805926 16.9665449,4.84157222 17.5,4.1 C18.752196,2.32194337 20.594966,1.04617956 22.7,0.5 C23.279824,0.303299203 23.887723,0.201982705 24.5,0.2 C24.6099251,0.213231529 24.7199988,0.176540288 24.8,0.1 L25.9,0.1 C26.4796321,0.102281241 27.0545985,0.203745901 27.6,0.4 C28.9922337,0.75099427 30.2253732,1.56134304 31.1,2.7 C31.7309516,3.52820021 32.1745073,4.48355099 32.4,5.5 C32.4072916,5.57678568 32.4429464,5.64809533 32.5,5.7 C32.5975628,5.47833497 32.7329103,5.27531372 32.9,5.1 C33.8736443,3.44103873 35.2944593,2.08953179 37,1.2 C38.0015304,0.703906713 39.0867033,0.398701831 40.2,0.3 C40.4,0.3 40.6,0.2 40.8,0.2 C41.0913204,0.11171452 41.3964052,0.077816212 41.7,0.1 Z" id="Shape"></path>
            <path d="M27,47.8 C27.2,47.4 27.3,47.1 27.5,46.7 C28.1,45.2 28.8,43.7 29.4,42.3 L29.4,31.8 C29.4,31.7 29.4,31.6 29.3,31.6 C27.8,29.7 26.2,27.9 24.7,26 C24.7,25.9 24.6,25.9 24.6,25.8 L38.6,25.8 L38.6,36.2 L38.7,36.1 C40.6,34.2 42.6,32.4 44.5,30.5 L45.1,29.9 C45.2,29.8 45.2,29.8 45.1,29.7 C44.3,28.5 43.5,27.2 42.6,25.9 C42.6,25.8447715 42.5552285,25.8 42.5,25.8 L54.6,25.8 L46.3,33.2 C49.8,38.1 53.3,43 56.9,47.9 L42.6,47.9 L42.6,47.2 C42.6,46.7 42.7,46.3 42.7,45.8 C42.7,45.3 42.8,44.9 42.8,44.4 L42.8,43.7 C41.8,42.2 40.7,40.6 39.7,39.1 C39.7,39.0447715 39.6552285,39 39.6,39 C39.4,39.2 39.1,39.4 38.9,39.6 L38.8,39.7 C38.518176,39.8622044 38.3606692,40.1772182 38.4,40.5 L38.4,43.7 C38.4,43.8 38.4,43.9 38.5,43.9 C39.5,45.2 40.5,46.4 41.6,47.7 C41.6,47.7552285 41.6447715,47.8 41.7,47.8 L27,47.8 Z" id="Shape"></path>
            <path d="M1.2,48.4 L1.2,38.1 C1.4,38.2 1.6,38.4 1.8,38.5 C3.8,39.9 5.8,41.2 7.8,42.6 C9.01337113,43.4235593 10.3231434,44.0952374 11.7,44.6 C12.3201615,44.8132112 12.9552218,44.9803323 13.6,45.1 C14.3992288,45.2167666 15.2132552,45.1828489 16,45 C16.2999651,44.893723 16.5730247,44.7230607 16.8,44.5 C17.1010859,44.0091601 17.1010859,43.3908399 16.8,42.9 C16.5674113,42.5909568 16.2567868,42.34936 15.9,42.2 C15.1353101,41.8131579 14.3304982,41.5113534 13.5,41.3 L10,40.4 C8.29827939,39.959552 6.65381039,39.3219007 5.1,38.5 C4.10849713,37.9704674 3.22627819,37.257906 2.5,36.4 C1.81044729,35.5698896 1.36091469,34.5670861 1.2,33.5 C1.06444549,32.8762005 1.03067612,32.2345826 1.1,31.6 C1.1878692,30.5029902 1.53026327,29.4415686 2.1,28.5 C2.78463864,27.4487165 3.75637507,26.6157995 4.9,26.1 C5.84358785,25.6367719 6.85724607,25.3326745 7.9,25.2 C9.28337917,24.9340574 10.6976099,24.8667131 12.1,25 C14.0965525,25.0750932 16.0624043,25.5157151 17.9,26.3 L19.1,26.9 L19.3,26.9 C20.8,26.3 22.2,25.8 23.7,25.2 L23.8,25.2 L23.8,34.2 C23.7447715,34.2 23.7,34.1552285 23.7,34.1 C22.2,33.1 20.7,32.1 19.2,31.2 C17.7804693,30.249223 16.2311719,29.5082547 14.6,29 C13.8782411,28.7859707 13.143367,28.6189539 12.4,28.5 C11.8041628,28.4000466 11.1958372,28.4000466 10.6,28.5 C10.194295,28.4788718 9.79737042,28.623208 9.5,28.9 C9.07176169,29.3335158 9.02907291,30.0165363 9.4,30.5 C9.73321996,30.8553251 10.1438461,31.1290758 10.6,31.3 C11.5001465,31.6714948 12.4394632,31.939871 13.4,32.1 C15.306971,32.4805731 17.1798162,33.0156717 19,33.7 C20.2978782,34.1570869 21.5392661,34.7610053 22.7,35.5 C23.6583127,36.09136 24.449936,36.9174017 25,37.9 C25.3814789,38.5776807 25.619733,39.3264791 25.7,40.1 C25.7500122,40.6321609 25.7500122,41.1678391 25.7,41.7 C25.6159631,43.5677079 24.7437442,45.3121457 23.3,46.5 C22.2318008,47.3925858 20.9616022,48.0105203 19.6,48.3 C18.7868604,48.5381867 17.9468633,48.6725862 17.1,48.7 C16.302858,48.783211 15.5013011,48.8166092 14.7,48.8 C13.996158,48.7829645 13.2944044,48.7161308 12.6,48.6 C10.6997691,48.2781526 8.85041835,47.7065351 7.1,46.9 L6.9,46.9 L1.8,48.4 C1.61284043,48.2986474 1.38715957,48.2986474 1.2,48.4 Z" id="Shape"></path>
            <rect id="Rectangle-path" x="0" y="75.1" width="119" height="4"></rect>
        </g>
    </g>
</svg>